<svg width="350" height="351" viewBox="0 0 350 351" fill="none" xmlns="http://www.w3.org/2000/svg">
<path d="M175.172 47.1885L42.0762 143.917L92.9014 300.392H257.442L308.268 143.917L175.172 47.1885Z" fill="white"/>
<path d="M243.427 255.719C243.427 248.575 237.616 242.799 230.507 242.799C226.85 242.799 223.534 244.337 221.176 246.764L236.044 267.374C240.385 265.289 243.427 260.846 243.427 255.719ZM217.553 255.719C217.553 262.145 222.27 267.477 228.388 268.468L217.724 253.668C217.621 254.352 217.553 255.035 217.553 255.719Z" fill="#E6E6E6"/>
<path d="M236.046 267.375L221.178 246.765C219.4 248.61 218.17 251.003 217.726 253.669L228.39 268.469C229.073 268.571 229.757 268.64 230.475 268.64C232.491 268.64 234.371 268.195 236.046 267.375Z" fill="#E6E6E6"/>
<path d="M183.511 247.619C182.725 245.91 180.674 245.158 178.965 245.945C177.256 246.731 176.504 248.781 177.29 250.49C177.803 251.618 178.384 252.712 178.965 253.772C179.58 254.9 180.742 255.515 181.938 255.515C182.52 255.515 183.066 255.378 183.613 255.071C185.254 254.148 185.835 252.063 184.912 250.422C184.434 249.533 183.921 248.576 183.511 247.619ZM180.024 235.554C179.922 234.529 179.854 233.572 179.854 232.683V232.58C179.854 230.7 178.35 229.162 176.47 229.128H176.436C174.556 229.128 173.018 230.632 173.018 232.512V232.683C173.018 233.845 173.086 235.075 173.223 236.34C173.428 238.083 174.897 239.382 176.606 239.382C176.743 239.382 176.88 239.382 176.982 239.348C178.896 239.143 180.229 237.434 180.024 235.554ZM195.2 261.77C194.346 261.223 193.525 260.608 192.739 259.958C191.27 258.762 189.116 258.967 187.92 260.437C186.724 261.906 186.929 264.06 188.398 265.256C189.39 266.076 190.415 266.828 191.44 267.512C192.021 267.888 192.671 268.059 193.32 268.059C194.448 268.059 195.542 267.512 196.191 266.521C197.217 264.914 196.772 262.795 195.2 261.77ZM209.556 266.111C208.53 266.076 207.471 266.008 206.479 265.871C204.6 265.632 202.891 266.965 202.651 268.811C202.412 270.691 203.745 272.4 205.591 272.639C206.821 272.81 208.052 272.878 209.316 272.912H209.419C211.265 272.912 212.769 271.443 212.837 269.597C212.905 267.717 211.436 266.145 209.556 266.111ZM185.493 214.465C183.887 213.474 181.768 214.021 180.811 215.627C180.195 216.653 179.614 217.61 179.033 218.498C178.042 220.105 178.521 222.224 180.127 223.215C180.674 223.557 181.323 223.728 181.938 223.728C183.066 223.728 184.194 223.147 184.844 222.121C185.459 221.13 186.074 220.139 186.655 219.148C187.646 217.541 187.1 215.456 185.493 214.465ZM195.884 185.617C195.474 186.643 195.063 187.702 194.653 188.728C193.936 190.471 194.756 192.488 196.499 193.205C196.943 193.376 197.388 193.479 197.798 193.479C199.131 193.479 200.396 192.693 200.942 191.36C201.387 190.266 201.831 189.172 202.241 188.113C202.925 186.369 202.036 184.387 200.293 183.703C199.78 183.498 199.268 183.43 198.755 183.498L197.319 183.977C196.704 184.284 196.157 184.865 195.884 185.617Z" fill="#005BFF"/>
<path d="M175.172 47.1885L42.0762 143.917L92.9014 300.392H257.408L308.233 143.917L175.172 47.1885ZM178.59 66.6025L288.819 146.686L274.054 151.539L178.59 82.1885V66.6025ZM178.59 90.6309L266.021 154.171L206.856 173.585C207.062 172.799 207.232 171.979 207.403 171.192C207.779 169.347 206.617 167.535 204.771 167.159C202.926 166.783 201.114 167.945 200.738 169.791C200.533 170.816 200.26 171.91 199.986 173.004C199.747 173.961 199.952 174.952 200.431 175.704L183.409 181.31C182.213 179.635 180.538 178.37 178.59 177.652V90.6309ZM59.4395 153.111L84.3223 161.109C84.7666 158.819 85.4844 156.666 86.5098 154.615L61.5928 146.617L171.754 66.5684V123.033C171.549 122.999 171.378 122.965 171.173 122.965C169.942 122.896 168.712 122.896 167.481 122.931C165.602 122.999 164.098 124.571 164.166 126.451C164.234 128.331 165.772 129.835 167.687 129.767C168.746 129.732 169.806 129.732 170.831 129.801H171.002C171.275 129.801 171.515 129.767 171.754 129.698V177.618C170.045 178.233 168.575 179.259 167.447 180.626L133.712 169.791C133.336 172.081 132.652 174.269 131.695 176.319L165.055 187.052V187.12C165.055 189.581 165.943 191.837 167.413 193.58L101.583 282.789L59.4395 153.111ZM107.188 286.72L173.36 197.101C173.941 197.203 174.557 197.271 175.172 197.271C175.753 197.271 176.334 197.203 176.915 197.135L212.838 246.9C211.505 249.566 210.753 252.574 210.753 255.753C210.753 266.656 219.605 275.509 230.509 275.509C231.466 275.509 232.423 275.44 233.346 275.304L241.583 286.754H107.188V286.72ZM217.555 255.719C217.555 255.035 217.623 254.352 217.726 253.668C218.136 251.002 219.4 248.609 221.178 246.764C223.536 244.303 226.852 242.799 230.509 242.799C237.652 242.799 243.429 248.609 243.429 255.719C243.429 260.846 240.421 265.289 236.046 267.374C234.371 268.194 232.491 268.639 230.475 268.639C229.757 268.639 229.073 268.57 228.39 268.468C222.271 267.477 217.555 262.145 217.555 255.719ZM248.282 284.327L240.113 272.98C246.163 269.596 250.265 263.136 250.265 255.719C250.265 244.815 241.412 235.963 230.509 235.963C225.348 235.963 220.665 237.945 217.145 241.192L193.048 207.799C193.219 207.594 193.39 207.355 193.526 207.115C194.073 206.09 194.62 205.03 195.133 204.039C195.987 202.364 195.304 200.313 193.629 199.459C191.954 198.604 189.903 199.288 189.049 200.963C188.912 201.202 188.775 201.476 188.673 201.715L182.862 193.683C184.229 192.076 185.084 190.06 185.255 187.872L197.32 183.907C197.765 183.634 198.243 183.463 198.756 183.429L290.87 153.18L248.282 284.327Z" fill="#005BFF"/>
<path d="M123.253 144.738L122.979 145.012C124.894 146.311 126.603 147.849 128.072 149.592L128.175 149.489C129.474 148.122 129.439 145.969 128.072 144.67C126.739 143.337 124.586 143.371 123.253 144.738ZM201.832 153.899C201.935 154.89 202.003 155.949 202.037 157.009C202.071 158.855 203.609 160.324 205.455 160.324H205.558C207.438 160.29 208.941 158.718 208.873 156.804C208.839 155.539 208.771 154.309 208.634 153.112C208.429 151.233 206.72 149.9 204.874 150.105C202.96 150.31 201.627 152.019 201.832 153.899ZM136.036 141.56C136.72 141.56 137.438 141.355 138.053 140.91C138.941 140.261 139.83 139.646 140.753 139.03C142.325 138.005 142.77 135.886 141.71 134.279C140.685 132.707 138.531 132.263 136.959 133.322C135.968 133.972 134.977 134.655 134.02 135.373C132.481 136.501 132.14 138.62 133.268 140.158C133.951 141.081 135.011 141.56 136.036 141.56ZM186.144 133.493C186.588 133.698 187.066 133.801 187.511 133.801C188.81 133.801 190.074 133.049 190.655 131.75C191.407 130.007 190.655 127.99 188.912 127.238C187.784 126.76 186.656 126.281 185.528 125.871C183.751 125.222 181.803 126.145 181.153 127.922C180.504 129.699 181.427 131.648 183.204 132.297C184.161 132.673 185.152 133.083 186.144 133.493ZM197.97 142.619C198.619 143.61 199.713 144.157 200.807 144.157C201.456 144.157 202.105 143.986 202.687 143.576C204.259 142.517 204.669 140.398 203.644 138.825C202.926 137.766 202.14 136.706 201.251 135.749C199.986 134.348 197.833 134.211 196.432 135.476C195.03 136.74 194.894 138.894 196.158 140.295C196.808 141.013 197.423 141.799 197.97 142.619ZM150.938 133.288C151.349 133.288 151.759 133.22 152.169 133.049C153.16 132.673 154.186 132.297 155.177 131.955C156.988 131.374 157.945 129.46 157.398 127.649C156.817 125.837 154.903 124.846 153.092 125.427C151.964 125.803 150.802 126.213 149.674 126.657C147.931 127.341 147.042 129.323 147.726 131.101C148.307 132.468 149.571 133.288 150.938 133.288ZM197.32 183.908L198.756 183.43C198.243 183.498 197.765 183.635 197.32 183.908Z" fill="#005BFF"/>
<path d="M127.217 165.793C127.217 155.744 119.014 147.541 108.965 147.541C102.197 147.541 96.2842 151.267 93.1055 156.77L127.114 167.707C127.183 167.058 127.217 166.442 127.217 165.793ZM90.7129 165.793C90.7129 175.842 98.916 184.045 108.965 184.045C115.972 184.045 122.09 180.046 125.132 174.235L90.8838 163.229C90.7812 164.05 90.7129 164.904 90.7129 165.793Z" fill="white"/>
<path d="M125.131 174.234C126.19 172.252 126.874 170.03 127.113 167.706L93.1045 156.769C91.9766 158.717 91.2246 160.904 90.8828 163.229L125.131 174.234Z" fill="white"/>
<path d="M128.072 149.591C126.603 147.848 124.894 146.31 122.979 145.011C118.98 142.276 114.127 140.704 108.932 140.704C99.1221 140.704 90.5771 146.378 86.4756 154.615C85.4502 156.632 84.7324 158.819 84.2881 161.109C84.0146 162.613 83.8438 164.186 83.8438 165.792C83.8438 179.635 95.0889 190.88 108.932 190.88C118.98 190.88 127.696 184.933 131.695 176.354C132.652 174.303 133.336 172.115 133.712 169.825C133.917 168.526 134.054 167.159 134.054 165.792C134.054 159.605 131.798 153.966 128.072 149.591ZM127.115 167.672C126.876 169.996 126.192 172.218 125.133 174.2C122.091 180.011 115.973 184.01 108.966 184.01C98.917 184.01 90.7139 175.807 90.7139 165.758C90.7139 164.869 90.7822 164.015 90.8848 163.194C91.2266 160.87 91.9785 158.683 93.1064 156.734C96.251 151.231 102.164 147.506 108.966 147.506C119.015 147.506 127.218 155.709 127.218 165.758C127.218 166.441 127.184 167.057 127.115 167.672Z" fill="#06F3FF"/>
</svg>
