<svg width="350" height="351" viewBox="0 0 350 351" fill="none" xmlns="http://www.w3.org/2000/svg">
<path d="M174.249 48.249L239.361 85.71L239.43 152.873L298.629 186.95L298.697 262.077L233.688 299.709L174.762 265.803L116.144 299.709L51.0312 262.248L50.9629 187.087L109.308 153.317L109.205 85.8809L174.249 48.249Z" fill="white"/>
<path d="M177.735 180.799V125.257L174.317 127.239L170.899 125.257V180.696L174.42 182.713L177.735 180.799ZM116.041 228.445L112.623 226.497V281.902L116.144 283.919L119.459 282.005V226.497L116.041 228.445ZM237.003 282.005V226.497L236.319 226.873C235.772 227.181 235.191 227.317 234.61 227.317C233.414 227.317 232.286 226.702 231.637 225.608C230.782 224.139 231.158 222.327 232.389 221.268C231.09 221.746 230.133 223.011 230.133 224.48V281.868L233.653 283.885L237.003 282.005Z" fill="#06F3FF"/>
<path d="M282.018 193.172L284.889 194.812C284.24 193.753 283.146 193.172 282.018 193.172ZM284.957 194.949V198.196C285.504 197.205 285.538 195.975 284.957 194.949ZM224.459 215.32L221.486 213.611C219.845 212.654 217.76 213.235 216.803 214.876C215.846 216.517 216.427 218.602 218.068 219.559L221.041 221.268C221.588 221.575 222.169 221.712 222.75 221.712C223.947 221.712 225.074 221.097 225.724 220.003C226.647 218.362 226.1 216.277 224.459 215.32ZM209.625 206.81L206.652 205.101C205.011 204.144 202.926 204.725 201.969 206.365C201.012 208.006 201.593 210.091 203.234 211.048L206.207 212.757C206.754 213.064 207.335 213.201 207.916 213.201C209.113 213.201 210.241 212.586 210.89 211.492C211.847 209.852 211.266 207.767 209.625 206.81Z" fill="#005BFF"/>
<path d="M284.923 194.881C284.923 194.847 284.889 194.847 284.889 194.812L282.018 193.172C281.403 193.172 280.822 193.309 280.241 193.616L277.267 195.325C275.626 196.282 275.079 198.367 276.002 200.008C276.652 201.102 277.78 201.717 278.976 201.717C279.557 201.717 280.138 201.58 280.685 201.272L283.658 199.563C284.24 199.222 284.65 198.777 284.957 198.23V194.983C284.957 194.915 284.923 194.881 284.923 194.881ZM235.841 219.251L232.867 220.96C232.697 221.062 232.526 221.165 232.389 221.302C231.124 222.361 230.783 224.173 231.637 225.643C232.286 226.736 233.414 227.352 234.611 227.352C235.192 227.352 235.773 227.215 236.32 226.907L237.003 226.531L239.293 225.198C240.934 224.241 241.481 222.156 240.558 220.516C239.567 218.875 237.482 218.294 235.841 219.251ZM194.825 198.299L191.852 196.59C190.211 195.633 188.126 196.214 187.169 197.854C186.212 199.495 186.793 201.58 188.434 202.537L191.408 204.246C191.954 204.554 192.535 204.69 193.116 204.69C194.313 204.69 195.441 204.075 196.09 202.981C197.013 201.341 196.432 199.222 194.825 198.299ZM265.441 202.161L262.467 203.87C260.826 204.827 260.28 206.912 261.202 208.553C261.852 209.646 262.98 210.262 264.176 210.262C264.757 210.262 265.338 210.125 265.885 209.817L268.859 208.108C270.499 207.151 271.046 205.066 270.123 203.426C269.166 201.785 267.081 201.204 265.441 202.161ZM250.641 210.706L247.667 212.415C246.027 213.372 245.48 215.457 246.403 217.098C247.052 218.191 248.18 218.807 249.376 218.807C249.957 218.807 250.538 218.67 251.085 218.362L254.059 216.653C255.699 215.696 256.246 213.611 255.324 211.971C254.366 210.33 252.282 209.749 250.641 210.706Z" fill="#005BFF"/>
<path d="M298.629 186.95L239.43 152.873L239.361 85.71L174.249 48.249L109.205 85.8809L109.273 153.317L50.9287 187.121L51.0313 262.248L116.144 299.743L174.728 265.803L233.653 299.743L298.663 262.111L298.629 186.95ZM174.249 64.04L222.237 91.6572L174.283 119.343L126.295 91.7598L174.249 64.04ZM115.973 165.246L163.961 192.863L116.007 220.549L68.0186 192.966L115.973 165.246ZM119.459 282.004L116.144 283.918L112.623 281.901L64.7031 254.318L64.6348 198.913L112.623 226.496L116.041 228.479L119.459 226.496L167.447 198.811L167.516 254.216L119.459 282.004ZM174.42 182.712L170.899 180.695L122.979 153.112L122.911 97.707L170.899 125.256L174.317 127.238L177.735 125.256L225.724 97.5703L225.792 152.976L177.735 180.798L174.42 182.712ZM285.025 254.182L236.969 282.004L233.653 283.918L230.133 281.901L182.213 254.318L182.179 194.982L233.551 165.246L282.052 193.171C283.18 193.205 284.308 193.786 284.923 194.812L284.991 194.846V194.948C285.572 196.008 285.538 197.238 284.991 198.195L285.025 254.182Z" fill="#005BFF"/>
</svg>
