<svg width="346" height="140" viewBox="0 0 346 140" fill="none" xmlns="http://www.w3.org/2000/svg">
<path fill-rule="evenodd" clip-rule="evenodd" d="M93.8107 35.0352H47.1906C30.7079 35.0352 22.4666 35.0352 17.3461 40.1557C12.2256 45.2762 12.2256 53.5175 12.2256 70.0002C12.2256 86.4827 12.2256 94.724 17.3461 99.8446C20.2281 102.727 24.0987 103.987 29.871 104.537C29.708 100.325 29.708 89.5352 29.7081 84.569C28.0989 84.569 26.7944 83.2642 26.7944 81.6552C26.7944 80.0462 28.0989 78.7414 29.7081 78.7414H111.293C112.902 78.7414 114.207 80.0462 114.207 81.6552C114.207 83.2642 112.902 84.5707 111.293 84.5707C111.293 89.5369 111.293 100.326 111.131 104.537C116.903 103.987 120.773 102.727 123.655 99.8446C128.776 94.724 128.776 86.4827 128.776 70.0002C128.776 53.5175 128.776 45.2762 123.655 40.1557C118.534 35.0352 110.293 35.0352 93.8107 35.0352ZM53.0181 62.7158C55.4319 62.7158 57.3888 60.7589 57.3888 58.3452C57.3888 55.9314 55.4319 53.9745 53.0181 53.9745H35.5356C33.1218 53.9745 31.165 55.9314 31.165 58.3452C31.165 60.7589 33.1218 62.7158 35.5356 62.7158H53.0181ZM99.6382 64.1727C102.857 64.1727 105.466 61.5637 105.466 58.3452C105.466 55.1268 102.857 52.5177 99.6382 52.5177C96.4196 52.5177 93.8107 55.1268 93.8107 58.3452C93.8107 61.5637 96.4196 64.1727 99.6382 64.1727Z" fill="#FFF5EA"/>
<path d="M100.342 16.8461C95.2216 11.7256 86.9804 11.7256 70.4978 11.7256C54.015 11.7256 45.7736 11.7256 40.6531 16.8461C37.7839 19.7154 36.5224 23.5646 35.9678 29.2946C39.2267 29.2079 42.829 29.208 46.7777 29.2081H94.2205C98.168 29.208 101.769 29.2079 105.028 29.2945C104.473 23.5645 103.212 19.7154 100.342 16.8461Z" fill="#4FC3F7"/>
<path fill-rule="evenodd" clip-rule="evenodd" d="M105.465 84.5693C105.465 101.052 105.465 118.034 100.345 123.155C95.224 128.276 86.9827 128.276 70.5002 128.276C54.0176 128.276 45.7762 128.276 40.6557 123.155C35.5352 118.034 35.5352 101.052 35.5352 84.5693H105.465ZM92.3533 97.6812C92.3533 100.095 90.3965 102.052 87.9827 102.052H53.0177C50.6039 102.052 48.647 100.095 48.647 97.6812C48.647 95.2675 50.6039 93.3106 53.0177 93.3106H87.9827C90.3965 93.3106 92.3533 95.2675 92.3533 97.6812ZM80.6983 115.164C80.6983 117.577 78.7415 119.534 76.3277 119.534H53.0177C50.6039 119.534 48.647 117.577 48.647 115.164C48.647 112.75 50.6039 110.793 53.0177 110.793H76.3277C78.7415 110.793 80.6983 112.75 80.6983 115.164Z" fill="#4FC3F7"/>
<path d="M154.053 87.9662C152.312 87.9662 150.914 87.4378 149.857 86.3811C148.831 85.2933 148.101 83.5995 147.666 81.2995L143.05 57.5699C142.988 57.197 142.957 56.9328 142.957 56.7774C142.957 56.0004 143.206 55.4099 143.703 55.0058C144.232 54.6018 144.946 54.3998 145.848 54.3998C147.712 54.3998 148.8 55.2234 149.111 56.8706L153.54 81.8124C153.664 82.3096 153.773 82.6515 153.866 82.838C153.96 82.9934 154.084 83.0711 154.239 83.0711C154.612 83.0711 154.845 82.6671 154.939 81.859L157.876 59.528C158.093 57.9118 158.684 56.6531 159.647 55.7517C160.642 54.8504 161.901 54.3998 163.423 54.3998C164.946 54.3998 166.19 54.8504 167.153 55.7517C168.148 56.6531 168.754 57.9118 168.971 59.528L171.908 81.859C172.002 82.6671 172.235 83.0711 172.608 83.0711C172.763 83.0711 172.887 82.9934 172.981 82.838C173.074 82.6515 173.183 82.3096 173.307 81.8124L177.736 56.8706C178.047 55.2234 179.134 54.3998 180.999 54.3998C181.901 54.3998 182.6 54.6018 183.097 55.0058C183.625 55.4099 183.89 56.0004 183.89 56.7774C183.89 56.9328 183.859 57.197 183.796 57.5699L179.181 81.2995C178.746 83.5995 178 85.2933 176.943 86.3811C175.918 87.4378 174.535 87.9662 172.794 87.9662C171.054 87.9662 169.702 87.4378 168.738 86.3811C167.775 85.3244 167.138 83.6772 166.827 81.4394L164.076 60.5536C164.014 60.0874 163.936 59.7611 163.843 59.5746C163.75 59.3881 163.61 59.2949 163.423 59.2949C163.237 59.2949 163.097 59.3881 163.004 59.5746C162.911 59.7611 162.833 60.0874 162.771 60.5536L160.02 81.4394C159.709 83.6772 159.072 85.3244 158.109 86.3811C157.145 87.4378 155.793 87.9662 154.053 87.9662ZM198.799 87.9662C196.126 87.9662 193.795 87.4845 191.806 86.521C189.817 85.5575 188.278 84.2055 187.191 82.465C186.134 80.6935 185.605 78.6267 185.605 76.2646C185.605 72.4417 186.709 69.4736 188.916 67.3601C191.153 65.2467 194.292 64.19 198.333 64.19C200.819 64.19 203.01 64.5785 204.906 65.3555C206.833 66.1325 208.325 67.2203 209.382 68.6189C210.47 69.9864 211.013 71.5559 211.013 73.3275C211.013 74.8193 210.532 75.9693 209.568 76.7774C208.636 77.5855 207.299 77.9895 205.559 77.9895H191.526C191.526 79.73 192.132 81.0509 193.344 81.9522C194.588 82.8225 196.406 83.2576 198.799 83.2576C201.316 83.2576 203.461 82.6981 205.233 81.5793C206.227 80.9577 207.004 80.6469 207.564 80.6469C208.092 80.6469 208.605 80.8955 209.102 81.3928C209.63 81.9211 209.895 82.4961 209.895 83.1177C209.895 83.8636 209.584 84.4542 208.962 84.8893C207.657 85.8838 206.134 86.6453 204.393 87.1737C202.653 87.702 200.788 87.9662 198.799 87.9662ZM203.694 73.7005C204.222 73.7005 204.595 73.6072 204.813 73.4207C205.031 73.2032 205.139 72.8613 205.139 72.3951C205.139 71.3073 204.518 70.4526 203.274 69.831C202.062 69.2094 200.415 68.8986 198.333 68.8986C196.25 68.8986 194.603 69.3337 193.391 70.204C192.21 71.0742 191.619 72.2397 191.619 73.7005H203.694ZM218.388 87.9662C217.456 87.9662 216.71 87.7176 216.15 87.2203C215.591 86.723 215.311 86.0392 215.311 85.169V61.7657C215.311 59.5901 215.933 57.8963 217.176 56.6841C218.45 55.472 220.206 54.866 222.444 54.866H230.323C235.047 54.866 238.637 55.845 241.092 57.803C243.547 59.7611 244.775 62.636 244.775 66.4277C244.775 70.2195 243.578 73.0944 241.185 75.0524C238.792 77.0105 235.265 77.9895 230.603 77.9895H221.512V85.169C221.512 86.0082 221.216 86.6919 220.626 87.2203C220.066 87.7176 219.321 87.9662 218.388 87.9662ZM230.556 73.1876C235.871 73.1876 238.528 70.9343 238.528 66.4277C238.528 61.9211 235.871 59.6678 230.556 59.6678H223.516C222.895 59.6678 222.397 59.8699 222.024 60.2739C221.683 60.6779 221.512 61.2374 221.512 61.9522V73.1876H230.556ZM252.112 87.9662C251.148 87.9662 250.402 87.7176 249.874 87.2203C249.346 86.723 249.082 86.0392 249.082 85.169V66.9872C249.082 66.0859 249.33 65.4021 249.828 64.9359C250.356 64.4386 251.086 64.19 252.019 64.19C252.951 64.19 253.681 64.4386 254.21 64.9359C254.738 65.4332 255.002 66.1169 255.002 66.9872V68.5256C255.966 67.2824 257.085 66.3345 258.359 65.6818C259.664 64.9981 261.063 64.6562 262.555 64.6562H263.58C264.575 64.6562 265.336 64.8737 265.865 65.3089C266.424 65.7129 266.704 66.3034 266.704 67.0804C266.704 67.8574 266.424 68.4635 265.865 68.8986C265.336 69.3026 264.575 69.5047 263.58 69.5047H261.995C259.913 69.5047 258.25 70.1729 257.007 71.5093C255.795 72.8147 255.189 74.6173 255.189 76.9172V85.169C255.189 86.0392 254.909 86.723 254.35 87.2203C253.79 87.7176 253.044 87.9662 252.112 87.9662ZM280.247 87.9662C277.575 87.9662 275.244 87.4845 273.254 86.521C271.265 85.5575 269.727 84.2055 268.639 82.465C267.582 80.6935 267.054 78.6267 267.054 76.2646C267.054 72.4417 268.157 69.4736 270.364 67.3601C272.602 65.2467 275.741 64.19 279.781 64.19C282.268 64.19 284.459 64.5785 286.355 65.3555C288.282 66.1325 289.773 67.2203 290.83 68.6189C291.918 69.9864 292.462 71.5559 292.462 73.3275C292.462 74.8193 291.98 75.9693 291.017 76.7774C290.084 77.5855 288.748 77.9895 287.007 77.9895H272.975C272.975 79.73 273.581 81.0509 274.793 81.9522C276.036 82.8225 277.854 83.2576 280.247 83.2576C282.765 83.2576 284.909 82.6981 286.681 81.5793C287.676 80.9577 288.453 80.6469 289.012 80.6469C289.54 80.6469 290.053 80.8955 290.55 81.3928C291.079 81.9211 291.343 82.4961 291.343 83.1177C291.343 83.8636 291.032 84.4542 290.411 84.8893C289.105 85.8838 287.582 86.6453 285.842 87.1737C284.101 87.702 282.237 87.9662 280.247 87.9662ZM285.143 73.7005C285.671 73.7005 286.044 73.6072 286.261 73.4207C286.479 73.2032 286.588 72.8613 286.588 72.3951C286.588 71.3073 285.966 70.4526 284.723 69.831C283.511 69.2094 281.864 68.8986 279.781 68.8986C277.699 68.8986 276.052 69.3337 274.84 70.204C273.658 71.0742 273.068 72.2397 273.068 73.7005H285.143ZM307.622 87.9662C302.618 87.9662 298.935 86.521 296.573 83.6305C296.076 82.9779 295.827 82.3873 295.827 81.859C295.827 81.1131 296.216 80.4604 296.993 79.9009C297.521 79.5591 298.034 79.3881 298.531 79.3881C299.215 79.3881 299.852 79.6834 300.443 80.2739C301.499 81.3306 302.525 82.0921 303.52 82.5583C304.545 82.9934 305.804 83.211 307.296 83.211C308.57 83.211 309.642 83.04 310.513 82.6981C311.383 82.3563 311.818 81.9367 311.818 81.4394C311.818 80.8178 311.461 80.2894 310.746 79.8543C310.031 79.4192 308.586 78.8598 306.41 78.176C302.991 77.1193 300.567 76.0159 299.137 74.866C297.708 73.6849 296.993 72.2242 296.993 70.4837C296.993 68.5256 297.832 66.9872 299.51 65.8683C301.189 64.7494 303.504 64.19 306.457 64.19C308.726 64.19 310.777 64.5319 312.611 65.2156C314.444 65.8994 315.781 66.8162 316.62 67.9662C317.024 68.4946 317.226 69.0229 317.226 69.5513C317.226 70.2972 316.853 70.9033 316.107 71.3695C315.579 71.7113 315.035 71.8823 314.475 71.8823C313.574 71.8823 312.75 71.5093 312.004 70.7634C311.383 70.1729 310.575 69.7222 309.58 69.4114C308.617 69.1006 307.56 68.9452 306.41 68.9452C304.234 68.9452 303.147 69.458 303.147 70.4837C303.147 70.8877 303.318 71.2451 303.659 71.5559C304.001 71.8667 304.607 72.1931 305.478 72.535C306.379 72.8768 307.778 73.343 309.673 73.9336C312.719 74.866 314.848 75.8916 316.06 77.0105C317.304 78.1294 317.925 79.6057 317.925 81.4394C317.925 83.3974 317.024 84.9825 315.221 86.1946C313.419 87.3757 310.886 87.9662 307.622 87.9662ZM333.072 87.9662C328.068 87.9662 324.385 86.521 322.023 83.6305C321.526 82.9779 321.277 82.3873 321.277 81.859C321.277 81.1131 321.666 80.4604 322.443 79.9009C322.971 79.5591 323.484 79.3881 323.981 79.3881C324.665 79.3881 325.302 79.6834 325.892 80.2739C326.949 81.3306 327.975 82.0921 328.969 82.5583C329.995 82.9934 331.254 83.211 332.746 83.211C334.02 83.211 335.092 83.04 335.962 82.6981C336.833 82.3563 337.268 81.9367 337.268 81.4394C337.268 80.8178 336.91 80.2894 336.196 79.8543C335.481 79.4192 334.035 78.8598 331.86 78.176C328.441 77.1193 326.017 76.0159 324.587 74.866C323.157 73.6849 322.443 72.2242 322.443 70.4837C322.443 68.5256 323.282 66.9872 324.96 65.8683C326.638 64.7494 328.954 64.19 331.906 64.19C334.175 64.19 336.227 64.5319 338.06 65.2156C339.894 65.8994 341.23 66.8162 342.07 67.9662C342.474 68.4946 342.676 69.0229 342.676 69.5513C342.676 70.2972 342.303 70.9033 341.557 71.3695C341.028 71.7113 340.485 71.8823 339.925 71.8823C339.024 71.8823 338.2 71.5093 337.454 70.7634C336.833 70.1729 336.025 69.7222 335.03 69.4114C334.067 69.1006 333.01 68.9452 331.86 68.9452C329.684 68.9452 328.596 69.458 328.596 70.4837C328.596 70.8877 328.767 71.2451 329.109 71.5559C329.451 71.8667 330.057 72.1931 330.927 72.535C331.829 72.8768 333.227 73.343 335.123 73.9336C338.169 74.866 340.298 75.8916 341.51 77.0105C342.753 78.1294 343.375 79.6057 343.375 81.4394C343.375 83.3974 342.474 84.9825 340.671 86.1946C338.868 87.3757 336.335 87.9662 333.072 87.9662Z" fill="#FFF5EA"/>
</svg>
