<svg width="350" height="351" viewBox="0 0 350 351" fill="none" xmlns="http://www.w3.org/2000/svg">
<path d="M198.002 84.2422C188.568 77.8164 181.767 71.0146 177.46 66.0586C173.153 71.0146 166.317 77.7822 156.85 84.2422C139.179 96.2734 118.944 102.904 96.5566 104.032V183.637C96.5566 186.542 96.9326 189.926 97.7187 193.686C97.7187 193.686 107.46 255.004 177.46 286.688C177.46 286.688 228.285 267.445 250.604 213.544C255.8 201.684 258.261 191.054 258.261 183.637V104.032C235.873 102.904 215.639 96.2734 198.002 84.2422Z" fill="white"/>
<path d="M211.504 171.64L226.714 139.032H205.078L189.868 171.64H211.504ZM144.307 139.032L129.097 171.64H150.732L165.942 139.032H144.307ZM196.328 139.032H174.692L159.482 171.64H181.118L196.328 139.032ZM102.3 139.032V171.64H120.347L135.557 139.032H102.3ZM252.554 171.64V139.032H235.464L220.254 171.64H252.554Z" fill="#E6E6E6"/>
<path d="M177.426 286.688C149.946 274.794 130.053 255.551 116.86 236.273C109.716 233.881 102.846 231.317 96.2838 228.686C99.0524 233.881 102.163 239.076 105.615 244.066C117.817 261.806 139.692 285.971 174.589 300.292C175.512 300.668 176.469 300.873 177.426 300.873C178.383 300.873 179.34 300.702 180.263 300.326C205.659 289.867 224.15 274.247 237.036 259.652C231.328 259.379 225.449 258.935 219.467 258.354C208.154 269.428 194.209 279.442 177.426 286.688ZM304.643 189.584C302.114 187.328 299.209 185.038 295.927 182.782C289.262 178.1 281.162 173.417 271.899 168.905V98.085C271.899 93.915 268.549 90.5312 264.448 90.5312C242.402 90.4287 222.646 84.5156 205.693 72.9629C192.534 64.0078 185.459 54.54 183.579 51.8398C182.177 49.8232 179.887 48.5928 177.426 48.5928C175 48.5928 172.675 49.7891 171.274 51.8057C169.394 54.5059 162.285 63.9736 149.126 72.9287C132.138 84.4814 112.348 90.3945 90.3365 90.4971C86.235 90.5312 82.8854 93.915 82.8854 98.0508V129.701C78.6471 129.975 74.6481 130.351 70.8883 130.863C62.4459 131.991 55.2682 133.7 49.4235 135.956C39.5114 139.818 33.735 145.219 32.2311 152.02C30.7955 158.515 33.4616 165.487 40.0924 172.802L40.1266 172.836C40.2633 172.973 40.3658 173.109 40.5026 173.246C46.6891 179.877 56.0543 186.645 68.359 193.378C69.1793 193.822 70.0338 194.301 70.8883 194.745C75.4684 197.172 80.3903 199.564 85.5514 201.854C87.0553 207.528 89.1744 213.441 91.8063 219.423C97.8903 222.055 104.316 224.584 111.049 227.011C107.426 220.722 104.487 214.535 102.231 208.725C121.132 215.937 142.529 222.294 165.053 227.284C190.346 232.89 215.092 236.308 237.207 237.367C233.755 242.323 229.892 247.245 225.551 252.03C231.396 252.509 237.104 252.851 242.607 253.021C245.068 249.911 247.255 246.903 249.204 244.066C250.639 241.981 252.006 239.862 253.339 237.709C258.09 237.675 262.636 237.538 267.046 237.23C278.496 236.479 288.203 234.872 295.962 232.445C297.671 231.898 299.277 231.352 300.781 230.736C303.755 229.54 306.352 228.173 308.54 226.703C307.412 224.789 305.976 222.943 304.404 221.2C302.148 222.704 299.311 224.037 295.962 225.199C288.545 227.797 278.564 229.608 266.601 230.395C263.628 230.6 260.551 230.736 257.373 230.805C266.533 214.125 271.933 196.933 271.933 183.603V176.527C281.504 181.381 289.638 186.371 295.962 191.259C297.465 192.421 298.833 193.549 300.131 194.711C305.703 199.667 312.026 206.947 310.59 213.51C310.351 214.535 309.941 215.492 309.36 216.449C311.103 218.329 312.573 220.209 313.735 222.055C315.512 219.901 316.674 217.543 317.255 214.979C318.964 207.118 314.726 198.573 304.643 189.584ZM71.6403 187.328C71.401 187.191 71.1276 187.055 70.8883 186.918C59.3014 180.526 50.5172 174.032 45.0826 168.017C45.0485 168.017 45.0485 168.051 45.0143 168.051C42.861 165.863 41.4596 163.471 40.9469 162.548C39.0328 159.232 38.2809 156.19 38.8961 153.456C40.5367 145.971 52.2262 140.365 70.8883 137.733C74.6139 137.221 78.6129 136.811 82.8854 136.537V183.637C82.8854 186.713 83.193 190.028 83.7399 193.48C79.5016 191.464 75.4342 189.413 71.6403 187.328ZM258.261 183.637C258.261 194.472 252.963 212.313 241.582 230.702C218.886 229.916 193.047 226.464 166.557 220.585C142.187 215.185 119.184 208.212 99.36 200.248C97.4801 193.822 96.5573 188.114 96.5573 183.637V104.032C118.945 102.904 139.179 96.2734 156.85 84.2422C166.318 77.8164 173.12 71.0147 177.461 66.0586C181.767 71.0147 188.569 77.7822 198.003 84.2422C215.639 96.2734 235.874 102.904 258.261 104.032V183.637Z" fill="#005BFF"/>
<path d="M82.7842 151.985C69.0781 152.84 57.833 154.959 49.4248 158.24C46.1436 159.505 43.3066 160.975 40.9482 162.581C41.9736 164.358 43.375 166.17 45.084 168.084C52.3301 163.299 65.4209 160.052 82.7842 158.89V151.985Z" fill="#06F3FF"/>
<path d="M40.9119 162.547C41.4246 163.47 42.8602 165.862 44.9793 168.05C45.0135 168.05 45.0135 168.016 45.0477 168.016C43.3729 166.136 41.9715 164.324 40.9119 162.547C40.9461 162.547 40.9461 162.547 40.9119 162.547ZM313.7 222.054C312.504 220.208 311.034 218.328 309.325 216.448C307.924 214.944 306.386 213.406 304.642 211.868C296.849 204.93 285.468 197.786 271.488 190.984C271.351 191.907 270.736 196.009 270.326 198.06C282.904 204.314 293.09 210.774 300.097 216.995C301.532 218.26 303.002 219.695 304.369 221.199C305.941 222.908 307.377 224.788 308.505 226.702C310.248 229.676 311.205 232.82 310.555 235.794C308.573 244.715 292.133 251.038 266.6 252.713C259.149 253.191 251.083 253.294 242.606 253.021C237.103 252.85 231.395 252.508 225.551 252.029C207.025 250.491 186.996 247.415 166.556 242.869C146.835 238.494 128.036 233.094 111.083 226.976C104.349 224.549 97.9237 222.02 91.8397 219.388C84.5936 216.243 77.826 212.962 71.6737 209.612C49.2176 197.342 36.9813 184.661 38.9295 175.74C39.1688 174.715 39.5789 173.724 40.16 172.801L40.1258 172.767C39.8182 172.459 37.8699 170.477 35.7508 167.195C33.9735 169.349 32.8114 171.707 32.2303 174.271C30.7606 180.901 33.5633 188.045 40.536 195.496C46.7225 202.127 56.0877 208.895 68.3924 215.628C76.7323 220.174 86.1317 224.583 96.3514 228.685C102.88 231.316 109.75 233.846 116.928 236.272C131.967 241.331 148.202 245.843 165.087 249.568C183.817 253.704 202.24 256.678 219.501 258.353C225.516 258.934 231.395 259.378 237.069 259.651C242.094 259.891 246.947 260.027 251.664 260.027C256.996 260.027 262.157 259.856 267.045 259.549C281.024 258.626 292.372 256.438 300.78 253.055C310.248 249.227 315.785 243.929 317.255 237.298C318.314 232.444 317.118 227.352 313.7 222.054Z" fill="#06F3FF"/>
<path d="M40.127 172.8C40.127 172.8 40.0928 172.8 40.0928 172.766C40.0928 172.766 40.127 172.766 40.127 172.8Z" fill="#06F3FF"/>
</svg>
